HIERARCHY
ROOT Hips
{
	OFFSET -3.958830 18.904000 13.208200
	CHANNELS 6 Xposition Yposition Zposition Zrotation Yrotation Xrotation 
	JOINT LHipJoint
	{
		OFFSET 0.000000 0.000000 0.000000
		CHANNELS 3 Zrotation Yrotation Xrotation
		JOINT LeftUpLeg
		{
			OFFSET 1.800000 -1.400000 0.085000
			CHANNELS 3 Zrotation Yrotation Xrotation
			JOINT LeftLeg
			{
				OFFSET 2.215000 -6.000000 0.000000
				CHANNELS 3 Zrotation Yrotation Xrotation
				JOINT LeftFoot
				{
					OFFSET 2.500000 -6.900000 0.000000
					CHANNELS 3 Zrotation Yrotation Xrotation
					JOINT LeftToeBase
					{
						OFFSET 0.200000 -0.500000 1.950000
						CHANNELS 3 Zrotation Yrotation Xrotation
						End Site
						{
							OFFSET 0.000000 0.000000 0.000000
						}
					}
				}
			}
		}
	}
	JOINT RHipJoint
	{
		OFFSET 0.000000 0.000000 0.000000
		CHANNELS 3 Zrotation Yrotation Xrotation
		JOINT RightUpLeg
		{
			OFFSET -1.800000 -1.400000 0.085000
			CHANNELS 3 Zrotation Yrotation Xrotation
			JOINT RightLeg
			{
				OFFSET -2.215000 -6.000000 0.000000
				CHANNELS 3 Zrotation Yrotation Xrotation
				JOINT RightFoot
				{
					OFFSET -2.500000 -6.900000 0.000000
					CHANNELS 3 Zrotation Yrotation Xrotation
					JOINT RightToeBase
					{
						OFFSET -0.200000 -0.500000 1.950000
						CHANNELS 3 Zrotation Yrotation Xrotation
						End Site
						{
							OFFSET 0.000000 0.000000 0.000000
						}
					}
				}
			}
		}
	}
	JOINT LowerBack
	{
		OFFSET 0.000000 0.000000 0.000000
		CHANNELS 3 Zrotation Yrotation Xrotation
		JOINT Spine
		{
			OFFSET -0.087000 1.940000 -0.288900
			CHANNELS 3 Zrotation Yrotation Xrotation
			JOINT Spine1
			{
				OFFSET 0.000000 1.950000 0.060000
				CHANNELS 3 Zrotation Yrotation Xrotation
				JOINT Neck
				{
					OFFSET 0.000000 0.000000 0.000000
					CHANNELS 3 Zrotation Yrotation Xrotation
					JOINT Neck1
					{
						OFFSET 0.000000 1.600000 0.340000
						CHANNELS 3 Zrotation Yrotation Xrotation
						JOINT Head
						{
							OFFSET 0.000000 1.667000 -0.240000
							CHANNELS 3 Zrotation Yrotation Xrotation
							End Site
							{
								OFFSET 0.000000 0.000000 0.000000
							}
						}
					}
				}
				JOINT LeftShoulder
				{
					OFFSET 0.000000 0.000000 0.000000
					CHANNELS 3 Zrotation Yrotation Xrotation
					JOINT LeftArm
					{
						OFFSET 2.700000 1.550000 -0.730000
						CHANNELS 3 Zrotation Yrotation Xrotation
						JOINT LeftForeArm
						{
							OFFSET 5.450000 0.000000 0.000000
							CHANNELS 3 Zrotation Yrotation Xrotation
							JOINT LeftHand
							{
								OFFSET 3.450000 0.000000 0.000000
								CHANNELS 3 Zrotation Yrotation Xrotation
								JOINT LeftHandIndex1
								{
									OFFSET 0.750000 0.000000 0.000000
									CHANNELS 3 Zrotation Yrotation Xrotation
									End Site
									{
										OFFSET 0.000000 0.000000 0.000000
									}
								}
							}
						}
					}
				}
				JOINT RightShoulder
				{
					OFFSET 0.000000 0.000000 0.000000
					CHANNELS 3 Zrotation Yrotation Xrotation
					JOINT RightArm
					{
						OFFSET -2.700000 1.550000 -0.730000
						CHANNELS 3 Zrotation Yrotation Xrotation
						JOINT RightForeArm
						{
							OFFSET -5.450000 0.000000 0.000000
							CHANNELS 3 Zrotation Yrotation Xrotation
							JOINT RightHand
							{
								OFFSET -3.450000 0.000000 0.000000
								CHANNELS 3 Zrotation Yrotation Xrotation
								JOINT RightHandIndex1
								{
									OFFSET -0.750000 0.000000 0.000000
									CHANNELS 3 Zrotation Yrotation Xrotation
									End Site
									{
										OFFSET 0.000000 0.000000 0.000000
									}
								}
							}
						}
					}
				}
			}
		}
	}
}
MOTION
Frames: 7
Frame Time: 0.016667
-0.280890 16.857090 -3.682170 -1.250213 13.214326 -2.471552 -15.182270 13.438316 3.614417 8.574737 -4.451155 -26.957113 -5.308688 6.866999 24.682377 -0.412207 4.457850 2.738832 0.426760 0.439900 0.323560 18.073173 -11.326607 2.155019 -15.147955 1.516117 -20.305803 2.462597 -7.809856 36.244500 -0.401066 -5.310722 2.293796 0.365260 -0.045500 0.034930 -3.589557 -2.069061 -7.726974 4.266552 1.019812 27.105969 -4.824135 3.648386 14.332435 -0.776987 -3.278348 -9.845058 -14.993031 7.066757 55.022381 -0.059280 3.839420 -7.199690 -7.520212 -17.728742 -1.370672 -16.460459 -34.808753 0.574904 0.578605 -60.438895 1.063647 -3.531355 2.973151 0.263770 -0.005550 0.121510 0.040870 8.131832 19.876284 9.000825 27.406263 11.861056 -5.749533 31.035381 61.715005 14.667023 2.088668 -1.686691 -0.081920 0.207090 -0.066470 -0.145300 
-0.300560 16.846710 -3.685830 -1.363421 12.315848 -3.007174 -15.188760 13.517369 3.580819 8.418810 -4.406822 -26.996660 -4.147749 6.735996 25.927765 -0.399471 4.519904 2.716518 0.431760 0.444740 0.321640 18.061019 -11.328606 2.167959 -15.056170 1.679058 -20.522998 1.909320 -7.711690 37.226783 -0.420446 -5.397666 2.266598 0.364040 -0.047950 0.033260 -3.544906 -2.142798 -7.727978 4.436440 0.673064 27.310096 -4.623472 3.410109 14.168071 -0.295471 -3.418474 -9.848771 -14.972867 6.859098 54.910876 -0.109810 3.133400 -7.434410 -8.854356 -17.827378 -0.775658 -18.374993 -33.712124 0.559833 -2.536962 -60.182185 2.498326 -3.526850 2.994989 0.265010 -0.014060 0.124580 0.045380 8.644766 20.276323 8.536012 25.575621 12.492707 -6.381046 24.706073 61.989539 11.812855 2.052831 -1.653019 -0.075940 0.211750 -0.069070 -0.138540 
-0.322380 16.835650 -3.688050 -1.466115 11.338750 -3.484410 -15.194006 13.597715 3.546337 8.258188 -4.345595 -26.984146 -2.992074 6.560222 27.020638 -0.387112 4.571326 2.699006 0.438130 0.449780 0.320140 18.049749 -11.334543 2.177935 -14.835538 1.846583 -20.702959 1.231511 -7.508395 38.058082 -0.436179 -5.451635 2.251911 0.362800 -0.049600 0.034370 -3.500821 -2.211817 -7.724685 4.597839 0.349971 27.436598 -4.432052 3.182078 14.022976 0.168340 -3.559845 -9.850868 -14.948978 6.636653 54.760594 -0.145930 2.392670 -7.692960 -10.057125 -17.859581 -0.169484 -20.294746 -32.579530 0.512869 -5.269908 -59.847041 3.685329 -3.521848 3.015855 0.266660 -0.022020 0.128460 0.051260 9.056302 20.635721 8.048968 23.875143 13.156310 -7.013192 18.353033 62.130997 8.852456 2.019113 -1.612608 -0.068960 0.215410 -0.072310 -0.131040 
-0.344750 16.826220 -3.690890 -1.612128 10.306625 -3.945218 -15.193667 13.682637 3.502086 8.065418 -4.251703 -26.882029 -1.723925 6.288105 27.895882 -0.380716 4.586442 2.694119 0.444030 0.453070 0.322830 18.041925 -11.351171 2.190250 -14.476112 2.018732 -20.807864 0.495764 -7.232434 38.737466 -0.448406 -5.478503 2.245948 0.360610 -0.054310 0.036310 -3.468928 -2.263161 -7.716376 4.887853 0.004256 27.564028 -4.299388 2.945251 13.895931 0.658023 -3.685099 -9.839239 -14.861016 6.385190 54.584391 -0.307920 1.700110 -8.009340 -11.271056 -17.893290 0.433669 -22.098585 -31.381330 0.386446 -7.700062 -59.493080 4.677077 -3.518097 3.034488 0.269160 -0.030280 0.133170 0.053410 9.422031 20.985382 7.539447 22.245698 13.848057 -7.694090 11.716961 62.225659 5.687333 1.986323 -1.561999 -0.062000 0.216990 -0.075000 -0.125960 
-0.369780 16.816650 -3.693330 -1.718957 9.185610 -4.349823 -15.196667 13.772966 3.459860 7.871437 -4.144498 -26.743127 -0.491649 6.000759 28.667424 -0.373004 4.599062 2.689644 0.449820 0.457540 0.325200 18.030704 -11.363909 2.199514 -13.993363 2.191113 -20.844290 -0.302363 -6.863309 39.197353 -0.454856 -5.466542 2.253725 0.359420 -0.060080 0.038060 -3.424090 -2.330194 -7.703995 5.077762 -0.282802 27.639036 -4.080902 2.740650 13.800326 1.115977 -3.814384 -9.830617 -14.781564 6.197144 54.377916 -0.501480 1.099760 -8.314150 -12.323305 -17.889390 1.040165 -23.878683 -30.168486 0.242781 -9.852811 -59.053138 5.483023 -3.513703 3.053840 0.270240 -0.038190 0.137840 0.055250 9.683514 21.339654 7.015904 20.628159 14.590881 -8.361440 4.945593 62.116946 2.414950 1.954384 -1.502156 -0.054710 0.217250 -0.077920 -0.121210 
-0.397770 16.807630 -3.695200 -1.820829 8.008034 -4.657040 -15.198999 13.860323 3.417701 7.686839 -4.021795 -26.606245 0.737329 5.680763 29.276914 -0.368784 4.597378 2.690790 0.451230 0.458850 0.323660 18.020424 -11.374430 2.211407 -13.398898 2.360777 -20.807895 -1.033083 -6.460619 39.382027 -0.452554 -5.419459 2.276144 0.358570 -0.063410 0.037370 -3.379547 -2.393207 -7.689708 5.265484 -0.536222 27.638458 -3.855519 2.561832 13.703978 1.560112 -3.930815 -9.810813 -14.643364 6.098863 54.118399 -0.717640 0.659800 -8.528150 -13.323681 -17.846614 1.636804 -25.598328 -28.901452 0.072117 -11.802095 -58.619666 6.159648 -3.512523 3.071576 0.269520 -0.042850 0.138860 0.056160 9.911562 21.653709 6.469734 19.058992 15.400727 -8.972549 -1.821761 61.785462 -0.846970 1.922107 -1.432382 -0.051090 0.218350 -0.078430 -0.117830 
-0.427160 16.799940 -3.696380 -1.871312 6.797676 -4.898558 -15.201570 13.947660 3.378351 7.447946 -3.901296 -26.422802 1.922104 5.339285 29.729179 -0.366079 4.580528 2.697603 0.451230 0.458390 0.322250 18.009098 -11.387875 2.220297 -12.737400 2.502035 -20.668989 -1.782186 -6.007273 39.324960 -0.443886 -5.338854 2.311247 0.356660 -0.067660 0.035950 -3.331903 -2.454989 -7.672709 5.390897 -0.758730 27.587717 -3.650764 2.403206 13.621557 2.004089 -4.054586 -9.822375 -14.537628 6.048276 53.897026 -0.999030 0.288640 -8.683280 -14.249802 -17.813540 2.229625 -27.253743 -27.568498 -0.150303 -13.598878 -58.125184 6.726275 -3.511039 3.088712 0.268810 -0.046990 0.138850 0.055500 10.065250 21.997761 5.963531 17.544765 16.233623 -9.501422 -8.199724 61.179864 -3.860485 1.892241 -1.358320 -0.048100 0.218000 -0.078250 -0.115840 
